<?xml version="1.0" encoding="UTF-8"?>
<!DOCTYPE svg PUBLIC "-//W3C//DTD SVG 1.1//EN" "http://www.w3.org/Graphics/SVG/1.1/DTD/svg11.dtd">
<svg width="160mm" height="90mm" viewBox="0 0 16000 9000" version="1.1" baseProfile="tiny" xmlns="http://www.w3.org/2000/svg" stroke-width="28.222" stroke-linejoin="round" xml:space="preserve">
 <path fill="rgb(255,255,255)" stroke="none" d="M 8000,9004 L 0,9004 0,0 16000,0 16000,9004 8000,9004 Z"/>
 <path fill="none" stroke="rgb(179,179,179)" stroke-linejoin="round" d="M 6523,7196 L 2243,7196 2243,1474 10802,1474 10802,7196 6523,7196 Z"/>
 <path fill="none" stroke="rgb(179,179,179)" stroke-linejoin="round" d="M 10802,7195 L 2243,7195"/>
 <path fill="none" stroke="rgb(179,179,179)" stroke-linejoin="round" d="M 10802,6622 L 2243,6622"/>
 <path fill="none" stroke="rgb(179,179,179)" stroke-linejoin="round" d="M 10802,6050 L 2243,6050"/>
 <path fill="none" stroke="rgb(179,179,179)" stroke-linejoin="round" d="M 10802,5478 L 2243,5478"/>
 <path fill="none" stroke="rgb(179,179,179)" stroke-linejoin="round" d="M 10802,4905 L 2243,4905"/>
 <path fill="none" stroke="rgb(179,179,179)" stroke-linejoin="round" d="M 10802,4334 L 2243,4334"/>
 <path fill="none" stroke="rgb(179,179,179)" stroke-linejoin="round" d="M 10802,3762 L 2243,3762"/>
 <path fill="none" stroke="rgb(179,179,179)" stroke-linejoin="round" d="M 10802,3189 L 2243,3189"/>
 <path fill="none" stroke="rgb(179,179,179)" stroke-linejoin="round" d="M 10802,2617 L 2243,2617"/>
 <path fill="none" stroke="rgb(179,179,179)" stroke-linejoin="round" d="M 10802,2045 L 2243,2045"/>
 <path fill="none" stroke="rgb(179,179,179)" stroke-linejoin="round" d="M 10802,1472 L 2243,1472"/>
 <path fill="none" stroke="rgb(179,179,179)" stroke-linejoin="round" d="M 2243,7345 L 2243,7195"/>
 <path fill="none" stroke="rgb(179,179,179)" stroke-linejoin="round" d="M 2243,7345 L 2243,7195"/>
 <path fill="none" stroke="rgb(179,179,179)" stroke-linejoin="round" d="M 3955,7345 L 3955,7195"/>
 <path fill="none" stroke="rgb(179,179,179)" stroke-linejoin="round" d="M 3955,7345 L 3955,7195"/>
 <path fill="none" stroke="rgb(179,179,179)" stroke-linejoin="round" d="M 5667,7345 L 5667,7195"/>
 <path fill="none" stroke="rgb(179,179,179)" stroke-linejoin="round" d="M 5667,7345 L 5667,7195"/>
 <path fill="none" stroke="rgb(179,179,179)" stroke-linejoin="round" d="M 7379,7345 L 7379,7195"/>
 <path fill="none" stroke="rgb(179,179,179)" stroke-linejoin="round" d="M 7379,7345 L 7379,7195"/>
 <path fill="none" stroke="rgb(179,179,179)" stroke-linejoin="round" d="M 9090,7345 L 9090,7195"/>
 <path fill="none" stroke="rgb(179,179,179)" stroke-linejoin="round" d="M 9090,7345 L 9090,7195"/>
 <path fill="none" stroke="rgb(179,179,179)" stroke-linejoin="round" d="M 10802,7345 L 10802,7195"/>
 <path fill="none" stroke="rgb(179,179,179)" stroke-linejoin="round" d="M 10802,7345 L 10802,7195"/>
 <path fill="none" stroke="rgb(179,179,179)" stroke-linejoin="round" d="M 2243,7195 L 10802,7195"/>
 <path fill="none" stroke="rgb(179,179,179)" stroke-linejoin="round" d="M 2093,7195 L 2243,7195"/>
 <path fill="none" stroke="rgb(179,179,179)" stroke-linejoin="round" d="M 2093,7195 L 2243,7195"/>
 <path fill="none" stroke="rgb(179,179,179)" stroke-linejoin="round" d="M 2093,6622 L 2243,6622"/>
 <path fill="none" stroke="rgb(179,179,179)" stroke-linejoin="round" d="M 2093,6622 L 2243,6622"/>
 <path fill="none" stroke="rgb(179,179,179)" stroke-linejoin="round" d="M 2093,6050 L 2243,6050"/>
 <path fill="none" stroke="rgb(179,179,179)" stroke-linejoin="round" d="M 2093,6050 L 2243,6050"/>
 <path fill="none" stroke="rgb(179,179,179)" stroke-linejoin="round" d="M 2093,5478 L 2243,5478"/>
 <path fill="none" stroke="rgb(179,179,179)" stroke-linejoin="round" d="M 2093,5478 L 2243,5478"/>
 <path fill="none" stroke="rgb(179,179,179)" stroke-linejoin="round" d="M 2093,4905 L 2243,4905"/>
 <path fill="none" stroke="rgb(179,179,179)" stroke-linejoin="round" d="M 2093,4905 L 2243,4905"/>
 <path fill="none" stroke="rgb(179,179,179)" stroke-linejoin="round" d="M 2093,4334 L 2243,4334"/>
 <path fill="none" stroke="rgb(179,179,179)" stroke-linejoin="round" d="M 2093,4334 L 2243,4334"/>
 <path fill="none" stroke="rgb(179,179,179)" stroke-linejoin="round" d="M 2093,3762 L 2243,3762"/>
 <path fill="none" stroke="rgb(179,179,179)" stroke-linejoin="round" d="M 2093,3762 L 2243,3762"/>
 <path fill="none" stroke="rgb(179,179,179)" stroke-linejoin="round" d="M 2093,3189 L 2243,3189"/>
 <path fill="none" stroke="rgb(179,179,179)" stroke-linejoin="round" d="M 2093,3189 L 2243,3189"/>
 <path fill="none" stroke="rgb(179,179,179)" stroke-linejoin="round" d="M 2093,2617 L 2243,2617"/>
 <path fill="none" stroke="rgb(179,179,179)" stroke-linejoin="round" d="M 2093,2617 L 2243,2617"/>
 <path fill="none" stroke="rgb(179,179,179)" stroke-linejoin="round" d="M 2093,2045 L 2243,2045"/>
 <path fill="none" stroke="rgb(179,179,179)" stroke-linejoin="round" d="M 2093,2045 L 2243,2045"/>
 <path fill="none" stroke="rgb(179,179,179)" stroke-linejoin="round" d="M 2093,1472 L 2243,1472"/>
 <path fill="none" stroke="rgb(179,179,179)" stroke-linejoin="round" d="M 2093,1472 L 2243,1472"/>
 <path fill="none" stroke="rgb(179,179,179)" stroke-linejoin="round" d="M 2243,7195 L 2243,1472"/>
 <path fill="none" stroke="rgb(255,66,14)" stroke-width="80" stroke-linejoin="round" d="M 2243,7091 L 2257,7088 2271,7081 2299,7073 2355,7057 2467,7002 2691,6911 3140,6659 4038,6199 5833,5407 9422,3517"/>
 <path fill="none" stroke="rgb(0,69,134)" stroke-width="80" stroke-linejoin="round" d="M 2243,7194 L 2257,7189 2271,7185 2299,7175 2355,7148 2467,7092 2691,6949 3140,6736 4038,6274 5833,5063 9422,1994"/>
 <text class="TextShape"><tspan class="TextParagraph" font-family="Liberation Sans, sans-serif" font-size="353px" font-weight="400"><tspan class="TextPosition" x="2150" y="7763"/><tspan class="TextPosition" x="2150" y="7763"><tspan fill="rgb(0,0,0)" stroke="none">0</tspan></tspan></tspan></text>
 <text class="TextShape"><tspan class="TextParagraph" font-family="Liberation Sans, sans-serif" font-size="353px" font-weight="400"><tspan class="TextPosition" x="3307" y="7763"/><tspan class="TextPosition" x="3307" y="7763"><tspan fill="rgb(0,0,0)" stroke="none">1000000</tspan></tspan></tspan></text>
 <text class="TextShape"><tspan class="TextParagraph" font-family="Liberation Sans, sans-serif" font-size="353px" font-weight="400"><tspan class="TextPosition" x="5019" y="7763"/><tspan class="TextPosition" x="5019" y="7763"><tspan fill="rgb(0,0,0)" stroke="none">2000000</tspan></tspan></tspan></text>
 <text class="TextShape"><tspan class="TextParagraph" font-family="Liberation Sans, sans-serif" font-size="353px" font-weight="400"><tspan class="TextPosition" x="6731" y="7763"/><tspan class="TextPosition" x="6731" y="7763"><tspan fill="rgb(0,0,0)" stroke="none">3000000</tspan></tspan></tspan></text>
 <text class="TextShape"><tspan class="TextParagraph" font-family="Liberation Sans, sans-serif" font-size="353px" font-weight="400"><tspan class="TextPosition" x="8443" y="7763"/><tspan class="TextPosition" x="8443" y="7763"><tspan fill="rgb(0,0,0)" stroke="none">4000000</tspan></tspan></tspan></text>
 <text class="TextShape"><tspan class="TextParagraph" font-family="Liberation Sans, sans-serif" font-size="353px" font-weight="400"><tspan class="TextPosition" x="10155" y="7763"/><tspan class="TextPosition" x="10155" y="7763"><tspan fill="rgb(0,0,0)" stroke="none">5000000</tspan></tspan></tspan></text>
 <text class="TextShape"><tspan class="TextParagraph" font-family="Liberation Sans, sans-serif" font-size="353px" font-weight="400"><tspan class="TextPosition" x="1808" y="7316"/><tspan class="TextPosition" x="1808" y="7316"><tspan fill="rgb(0,0,0)" stroke="none">0</tspan></tspan></tspan></text>
 <text class="TextShape"><tspan class="TextParagraph" font-family="Liberation Sans, sans-serif" font-size="353px" font-weight="400"><tspan class="TextPosition" x="1332" y="6743"/><tspan class="TextPosition" x="1332" y="6743"><tspan fill="rgb(0,0,0)" stroke="none">0.01</tspan></tspan></tspan></text>
 <text class="TextShape"><tspan class="TextParagraph" font-family="Liberation Sans, sans-serif" font-size="353px" font-weight="400"><tspan class="TextPosition" x="1332" y="6171"/><tspan class="TextPosition" x="1332" y="6171"><tspan fill="rgb(0,0,0)" stroke="none">0.02</tspan></tspan></tspan></text>
 <text class="TextShape"><tspan class="TextParagraph" font-family="Liberation Sans, sans-serif" font-size="353px" font-weight="400"><tspan class="TextPosition" x="1332" y="5599"/><tspan class="TextPosition" x="1332" y="5599"><tspan fill="rgb(0,0,0)" stroke="none">0.03</tspan></tspan></tspan></text>
 <text class="TextShape"><tspan class="TextParagraph" font-family="Liberation Sans, sans-serif" font-size="353px" font-weight="400"><tspan class="TextPosition" x="1332" y="5026"/><tspan class="TextPosition" x="1332" y="5026"><tspan fill="rgb(0,0,0)" stroke="none">0.04</tspan></tspan></tspan></text>
 <text class="TextShape"><tspan class="TextParagraph" font-family="Liberation Sans, sans-serif" font-size="353px" font-weight="400"><tspan class="TextPosition" x="1332" y="4454"/><tspan class="TextPosition" x="1332" y="4454"><tspan fill="rgb(0,0,0)" stroke="none">0.05</tspan></tspan></tspan></text>
 <text class="TextShape"><tspan class="TextParagraph" font-family="Liberation Sans, sans-serif" font-size="353px" font-weight="400"><tspan class="TextPosition" x="1332" y="3882"/><tspan class="TextPosition" x="1332" y="3882"><tspan fill="rgb(0,0,0)" stroke="none">0.06</tspan></tspan></tspan></text>
 <text class="TextShape"><tspan class="TextParagraph" font-family="Liberation Sans, sans-serif" font-size="353px" font-weight="400"><tspan class="TextPosition" x="1332" y="3309"/><tspan class="TextPosition" x="1332" y="3309"><tspan fill="rgb(0,0,0)" stroke="none">0.07</tspan></tspan></tspan></text>
 <text class="TextShape"><tspan class="TextParagraph" font-family="Liberation Sans, sans-serif" font-size="353px" font-weight="400"><tspan class="TextPosition" x="1332" y="2737"/><tspan class="TextPosition" x="1332" y="2737"><tspan fill="rgb(0,0,0)" stroke="none">0.08</tspan></tspan></tspan></text>
 <text class="TextShape"><tspan class="TextParagraph" font-family="Liberation Sans, sans-serif" font-size="353px" font-weight="400"><tspan class="TextPosition" x="1332" y="2165"/><tspan class="TextPosition" x="1332" y="2165"><tspan fill="rgb(0,0,0)" stroke="none">0.09</tspan></tspan></tspan></text>
 <text class="TextShape"><tspan class="TextParagraph" font-family="Liberation Sans, sans-serif" font-size="353px" font-weight="400"><tspan class="TextPosition" x="1517" y="1592"/><tspan class="TextPosition" x="1517" y="1592"><tspan fill="rgb(0,0,0)" stroke="none">0.1</tspan></tspan></tspan></text>
 <text class="TextShape"><tspan class="TextParagraph" font-family="Liberation Sans, sans-serif" font-size="459px" font-weight="400"><tspan class="TextPosition" x="6730" y="851"/><tspan class="TextPosition" x="6730" y="851"><tspan fill="rgb(0,0,0)" stroke="none">Random data</tspan></tspan></tspan></text>
 <path fill="none" stroke="rgb(0,69,134)" stroke-width="80" stroke-linejoin="round" d="M 11888,4252 L 12688,4252"/>
 <path fill="none" stroke="rgb(255,66,14)" stroke-width="80" stroke-linejoin="round" d="M 11888,4749 L 12688,4749"/>
 <text class="TextShape"><tspan class="TextParagraph" font-family="Liberation Sans, sans-serif" font-size="353px" font-weight="400"><tspan class="TextPosition" x="12788" y="4372"/><tspan class="TextPosition" x="12788" y="4372"><tspan fill="rgb(0,0,0)" stroke="none"> </tspan></tspan><tspan class="TextPosition" x="12894" y="4372"><tspan fill="rgb(0,0,0)" stroke="none">radix_sort</tspan></tspan></tspan></text>
 <text class="TextShape"><tspan class="TextParagraph" font-family="Liberation Sans, sans-serif" font-size="353px" font-weight="400"><tspan class="TextPosition" x="12788" y="4869"/><tspan class="TextPosition" x="12788" y="4869"><tspan fill="rgb(0,0,0)" stroke="none"> </tspan></tspan><tspan class="TextPosition" x="12894" y="4869"><tspan fill="rgb(0,0,0)" stroke="none">parallel_radix_sort</tspan></tspan></tspan></text>
 <text class="TextShape"><tspan class="TextParagraph" font-family="Liberation Sans, sans-serif" font-size="318px" font-weight="400"><tspan class="TextPosition" x="4923" y="8410"/><tspan class="TextPosition" x="4923" y="8410"><tspan fill="rgb(0,0,0)" stroke="none">number of elements</tspan></tspan></tspan></text>
 <text class="TextShape" transform="translate(837,5630) rotate(-90) translate(-837,-5630)"><tspan class="TextParagraph" font-family="Liberation Sans, sans-serif" font-size="318px" font-weight="400"><tspan class="TextPosition" x="837" y="5630"/><tspan class="TextPosition" x="837" y="5630"><tspan fill="rgb(0,0,0)" stroke="none">time [seconds]</tspan></tspan></tspan></text>
</svg>