<?xml version="1.0" encoding="UTF-8"?>
<!DOCTYPE svg PUBLIC "-//W3C//DTD SVG 1.1//EN" "http://www.w3.org/Graphics/SVG/1.1/DTD/svg11.dtd">
<svg width="160mm" height="90mm" viewBox="0 0 16000 9000" version="1.1" baseProfile="tiny" xmlns="http://www.w3.org/2000/svg" stroke-width="28.222" stroke-linejoin="round" xml:space="preserve">
 <path fill="rgb(255,255,255)" stroke="none" d="M 8000,9005 L 0,9005 0,0 16000,0 16000,9005 8000,9005 Z"/>
 <path fill="none" stroke="rgb(179,179,179)" stroke-linejoin="round" d="M 6523,7197 L 2243,7197 2243,1474 10802,1474 10802,7197 6523,7197 Z"/>
 <path fill="none" stroke="rgb(179,179,179)" stroke-linejoin="round" d="M 10802,7196 L 2243,7196"/>
 <path fill="none" stroke="rgb(179,179,179)" stroke-linejoin="round" d="M 10802,6051 L 2243,6051"/>
 <path fill="none" stroke="rgb(179,179,179)" stroke-linejoin="round" d="M 10802,4906 L 2243,4906"/>
 <path fill="none" stroke="rgb(179,179,179)" stroke-linejoin="round" d="M 10802,3762 L 2243,3762"/>
 <path fill="none" stroke="rgb(179,179,179)" stroke-linejoin="round" d="M 10802,2617 L 2243,2617"/>
 <path fill="none" stroke="rgb(179,179,179)" stroke-linejoin="round" d="M 10802,1473 L 2243,1473"/>
 <path fill="none" stroke="rgb(179,179,179)" stroke-linejoin="round" d="M 2243,7346 L 2243,7196"/>
 <path fill="none" stroke="rgb(179,179,179)" stroke-linejoin="round" d="M 2243,7346 L 2243,7196"/>
 <path fill="none" stroke="rgb(179,179,179)" stroke-linejoin="round" d="M 3669,7346 L 3669,7196"/>
 <path fill="none" stroke="rgb(179,179,179)" stroke-linejoin="round" d="M 3669,7346 L 3669,7196"/>
 <path fill="none" stroke="rgb(179,179,179)" stroke-linejoin="round" d="M 5096,7346 L 5096,7196"/>
 <path fill="none" stroke="rgb(179,179,179)" stroke-linejoin="round" d="M 5096,7346 L 5096,7196"/>
 <path fill="none" stroke="rgb(179,179,179)" stroke-linejoin="round" d="M 6523,7346 L 6523,7196"/>
 <path fill="none" stroke="rgb(179,179,179)" stroke-linejoin="round" d="M 6523,7346 L 6523,7196"/>
 <path fill="none" stroke="rgb(179,179,179)" stroke-linejoin="round" d="M 7949,7346 L 7949,7196"/>
 <path fill="none" stroke="rgb(179,179,179)" stroke-linejoin="round" d="M 7949,7346 L 7949,7196"/>
 <path fill="none" stroke="rgb(179,179,179)" stroke-linejoin="round" d="M 9375,7346 L 9375,7196"/>
 <path fill="none" stroke="rgb(179,179,179)" stroke-linejoin="round" d="M 9375,7346 L 9375,7196"/>
 <path fill="none" stroke="rgb(179,179,179)" stroke-linejoin="round" d="M 10802,7346 L 10802,7196"/>
 <path fill="none" stroke="rgb(179,179,179)" stroke-linejoin="round" d="M 10802,7346 L 10802,7196"/>
 <path fill="none" stroke="rgb(179,179,179)" stroke-linejoin="round" d="M 2243,7196 L 10802,7196"/>
 <path fill="none" stroke="rgb(179,179,179)" stroke-linejoin="round" d="M 2093,7196 L 2243,7196"/>
 <path fill="none" stroke="rgb(179,179,179)" stroke-linejoin="round" d="M 2093,7196 L 2243,7196"/>
 <path fill="none" stroke="rgb(179,179,179)" stroke-linejoin="round" d="M 2093,6051 L 2243,6051"/>
 <path fill="none" stroke="rgb(179,179,179)" stroke-linejoin="round" d="M 2093,6051 L 2243,6051"/>
 <path fill="none" stroke="rgb(179,179,179)" stroke-linejoin="round" d="M 2093,4906 L 2243,4906"/>
 <path fill="none" stroke="rgb(179,179,179)" stroke-linejoin="round" d="M 2093,4906 L 2243,4906"/>
 <path fill="none" stroke="rgb(179,179,179)" stroke-linejoin="round" d="M 2093,3762 L 2243,3762"/>
 <path fill="none" stroke="rgb(179,179,179)" stroke-linejoin="round" d="M 2093,3762 L 2243,3762"/>
 <path fill="none" stroke="rgb(179,179,179)" stroke-linejoin="round" d="M 2093,2617 L 2243,2617"/>
 <path fill="none" stroke="rgb(179,179,179)" stroke-linejoin="round" d="M 2093,2617 L 2243,2617"/>
 <path fill="none" stroke="rgb(179,179,179)" stroke-linejoin="round" d="M 2093,1473 L 2243,1473"/>
 <path fill="none" stroke="rgb(179,179,179)" stroke-linejoin="round" d="M 2093,1473 L 2243,1473"/>
 <path fill="none" stroke="rgb(179,179,179)" stroke-linejoin="round" d="M 2243,7196 L 2243,1473"/>
 <path fill="none" stroke="rgb(87,157,28)" stroke-width="80" stroke-linejoin="round" d="M 2243,7150 L 2257,7154 2272,7154 2301,7153 2359,7152 2476,7149 2710,7138 3177,7117 4112,7080 5982,6983 9721,6800"/>
 <path fill="none" stroke="rgb(255,211,32)" stroke-width="80" stroke-linejoin="round" d="M 2243,7195 L 2257,7195 2272,7194 2301,7193 2359,7191 2476,7188 2710,7177 3177,7154 4112,7100 5982,7014 9721,6839"/>
 <path fill="none" stroke="rgb(255,66,14)" stroke-width="80" stroke-linejoin="round" d="M 2243,7196 L 2257,7194 2272,7192 2301,7188 2359,7179 2476,7164 2710,7129 3177,7054 4112,6896 5982,6565 9721,5864"/>
 <path fill="none" stroke="rgb(0,69,134)" stroke-width="80" stroke-linejoin="round" d="M 2243,7196 L 2257,7189 2272,7182 2301,7166 2359,7134 2476,7078 2710,6947 3177,6674 4112,6089 5982,4862 9721,2340"/>
 <text class="TextShape"><tspan class="TextParagraph" font-family="Liberation Sans" font-size="353px" font-weight="400"><tspan class="TextPosition" x="2150" y="7764"/><tspan class="TextPosition" x="2150" y="7764"><tspan fill="rgb(0,0,0)" stroke="none">0</tspan></tspan></tspan></text>
 <text class="TextShape"><tspan class="TextParagraph" font-family="Liberation Sans" font-size="353px" font-weight="400"><tspan class="TextPosition" x="3113" y="7764"/><tspan class="TextPosition" x="3113" y="7764"><tspan fill="rgb(0,0,0)" stroke="none">200000</tspan></tspan></tspan></text>
 <text class="TextShape"><tspan class="TextParagraph" font-family="Liberation Sans" font-size="353px" font-weight="400"><tspan class="TextPosition" x="4540" y="7764"/><tspan class="TextPosition" x="4540" y="7764"><tspan fill="rgb(0,0,0)" stroke="none">400000</tspan></tspan></tspan></text>
 <text class="TextShape"><tspan class="TextParagraph" font-family="Liberation Sans" font-size="353px" font-weight="400"><tspan class="TextPosition" x="5967" y="7764"/><tspan class="TextPosition" x="5967" y="7764"><tspan fill="rgb(0,0,0)" stroke="none">600000</tspan></tspan></tspan></text>
 <text class="TextShape"><tspan class="TextParagraph" font-family="Liberation Sans" font-size="353px" font-weight="400"><tspan class="TextPosition" x="7393" y="7764"/><tspan class="TextPosition" x="7393" y="7764"><tspan fill="rgb(0,0,0)" stroke="none">800000</tspan></tspan></tspan></text>
 <text class="TextShape"><tspan class="TextParagraph" font-family="Liberation Sans" font-size="353px" font-weight="400"><tspan class="TextPosition" x="8728" y="7764"/><tspan class="TextPosition" x="8728" y="7764"><tspan fill="rgb(0,0,0)" stroke="none">1000000</tspan></tspan></tspan></text>
 <text class="TextShape"><tspan class="TextParagraph" font-family="Liberation Sans" font-size="353px" font-weight="400"><tspan class="TextPosition" x="10155" y="7764"/><tspan class="TextPosition" x="10155" y="7764"><tspan fill="rgb(0,0,0)" stroke="none">1200000</tspan></tspan></tspan></text>
 <text class="TextShape"><tspan class="TextParagraph" font-family="Liberation Sans" font-size="353px" font-weight="400"><tspan class="TextPosition" x="1808" y="7317"/><tspan class="TextPosition" x="1808" y="7317"><tspan fill="rgb(0,0,0)" stroke="none">0</tspan></tspan></tspan></text>
 <text class="TextShape"><tspan class="TextParagraph" font-family="Liberation Sans" font-size="353px" font-weight="400"><tspan class="TextPosition" x="1332" y="6172"/><tspan class="TextPosition" x="1332" y="6172"><tspan fill="rgb(0,0,0)" stroke="none">0.05</tspan></tspan></tspan></text>
 <text class="TextShape"><tspan class="TextParagraph" font-family="Liberation Sans" font-size="353px" font-weight="400"><tspan class="TextPosition" x="1517" y="5027"/><tspan class="TextPosition" x="1517" y="5027"><tspan fill="rgb(0,0,0)" stroke="none">0.1</tspan></tspan></tspan></text>
 <text class="TextShape"><tspan class="TextParagraph" font-family="Liberation Sans" font-size="353px" font-weight="400"><tspan class="TextPosition" x="1332" y="3882"/><tspan class="TextPosition" x="1332" y="3882"><tspan fill="rgb(0,0,0)" stroke="none">0.15</tspan></tspan></tspan></text>
 <text class="TextShape"><tspan class="TextParagraph" font-family="Liberation Sans" font-size="353px" font-weight="400"><tspan class="TextPosition" x="1517" y="2737"/><tspan class="TextPosition" x="1517" y="2737"><tspan fill="rgb(0,0,0)" stroke="none">0.2</tspan></tspan></tspan></text>
 <text class="TextShape"><tspan class="TextParagraph" font-family="Liberation Sans" font-size="353px" font-weight="400"><tspan class="TextPosition" x="1332" y="1593"/><tspan class="TextPosition" x="1332" y="1593"><tspan fill="rgb(0,0,0)" stroke="none">0.25</tspan></tspan></tspan></text>
 <text class="TextShape"><tspan class="TextParagraph" font-family="Liberation Sans" font-size="459px" font-weight="400"><tspan class="TextPosition" x="6730" y="851"/><tspan class="TextPosition" x="6730" y="851"><tspan fill="rgb(0,0,0)" stroke="none">Random data</tspan></tspan></tspan></text>
 <path fill="none" stroke="rgb(0,69,134)" stroke-width="80" stroke-linejoin="round" d="M 11888,3755 L 12688,3755"/>
 <path fill="none" stroke="rgb(255,66,14)" stroke-width="80" stroke-linejoin="round" d="M 11888,4253 L 12688,4253"/>
 <path fill="none" stroke="rgb(255,211,32)" stroke-width="80" stroke-linejoin="round" d="M 11888,4750 L 12688,4750"/>
 <path fill="none" stroke="rgb(87,157,28)" stroke-width="80" stroke-linejoin="round" d="M 11888,5248 L 12688,5248"/>
 <text class="TextShape"><tspan class="TextParagraph" font-family="Liberation Sans" font-size="353px" font-weight="400"><tspan class="TextPosition" x="12788" y="3875"/><tspan class="TextPosition" x="12788" y="3875"><tspan fill="rgb(0,0,0)" stroke="none"> </tspan></tspan><tspan class="TextPosition" x="12894" y="3875"><tspan fill="rgb(0,0,0)" stroke="none">qsort</tspan></tspan></tspan></text>
 <text class="TextShape"><tspan class="TextParagraph" font-family="Liberation Sans" font-size="353px" font-weight="400"><tspan class="TextPosition" x="12788" y="4373"/><tspan class="TextPosition" x="12788" y="4373"><tspan fill="rgb(0,0,0)" stroke="none"> </tspan></tspan><tspan class="TextPosition" x="12894" y="4373"><tspan fill="rgb(0,0,0)" stroke="none">merge_sort</tspan></tspan></tspan></text>
 <text class="TextShape"><tspan class="TextParagraph" font-family="Liberation Sans" font-size="353px" font-weight="400"><tspan class="TextPosition" x="12788" y="4870"/><tspan class="TextPosition" x="12788" y="4870"><tspan fill="rgb(0,0,0)" stroke="none"> </tspan></tspan><tspan class="TextPosition" x="12894" y="4870"><tspan fill="rgb(0,0,0)" stroke="none">radix_sort</tspan></tspan></tspan></text>
 <text class="TextShape"><tspan class="TextParagraph" font-family="Liberation Sans" font-size="353px" font-weight="400"><tspan class="TextPosition" x="12788" y="5368"/><tspan class="TextPosition" x="12788" y="5368"><tspan fill="rgb(0,0,0)" stroke="none"> </tspan></tspan><tspan class="TextPosition" x="12894" y="5368"><tspan fill="rgb(0,0,0)" stroke="none">parallel_radix_sort</tspan></tspan></tspan></text>
 <text class="TextShape"><tspan class="TextParagraph" font-family="Liberation Sans" font-size="318px" font-weight="400"><tspan class="TextPosition" x="4923" y="8411"/><tspan class="TextPosition" x="4923" y="8411"><tspan fill="rgb(0,0,0)" stroke="none">number of elements</tspan></tspan></tspan></text>
 <text class="TextShape" transform="translate(837,5631) rotate(-90) translate(-837,-5631)"><tspan class="TextParagraph" font-family="Liberation Sans" font-size="318px" font-weight="400"><tspan class="TextPosition" x="837" y="5631"/><tspan class="TextPosition" x="837" y="5631"><tspan fill="rgb(0,0,0)" stroke="none">time [seconds]</tspan></tspan></tspan></text>
</svg>