<?xml version="1.0" encoding="UTF-8"?>
<!DOCTYPE svg PUBLIC "-//W3C//DTD SVG 1.1//EN" "http://www.w3.org/Graphics/SVG/1.1/DTD/svg11.dtd">
<svg width="160mm" height="90mm" viewBox="0 0 16000 9000" version="1.1" baseProfile="tiny" xmlns="http://www.w3.org/2000/svg" stroke-width="28.222" stroke-linejoin="round" xml:space="preserve">
 <path fill="rgb(255,255,255)" stroke="none" d="M 8000,9004 L 0,9004 0,0 16000,0 16000,9004 8000,9004 Z"/>
 <path fill="none" stroke="rgb(179,179,179)" stroke-linejoin="round" d="M 6523,7196 L 2243,7196 2243,1475 10802,1475 10802,7196 6523,7196 Z"/>
 <path fill="none" stroke="rgb(179,179,179)" stroke-linejoin="round" d="M 10802,7195 L 2243,7195"/>
 <path fill="none" stroke="rgb(179,179,179)" stroke-linejoin="round" d="M 10802,6377 L 2243,6377"/>
 <path fill="none" stroke="rgb(179,179,179)" stroke-linejoin="round" d="M 10802,5560 L 2243,5560"/>
 <path fill="none" stroke="rgb(179,179,179)" stroke-linejoin="round" d="M 10802,4742 L 2243,4742"/>
 <path fill="none" stroke="rgb(179,179,179)" stroke-linejoin="round" d="M 10802,3926 L 2243,3926"/>
 <path fill="none" stroke="rgb(179,179,179)" stroke-linejoin="round" d="M 10802,3108 L 2243,3108"/>
 <path fill="none" stroke="rgb(179,179,179)" stroke-linejoin="round" d="M 10802,2291 L 2243,2291"/>
 <path fill="none" stroke="rgb(179,179,179)" stroke-linejoin="round" d="M 10802,1473 L 2243,1473"/>
 <path fill="none" stroke="rgb(179,179,179)" stroke-linejoin="round" d="M 2243,7345 L 2243,7195"/>
 <path fill="none" stroke="rgb(179,179,179)" stroke-linejoin="round" d="M 2243,7345 L 2243,7195"/>
 <path fill="none" stroke="rgb(179,179,179)" stroke-linejoin="round" d="M 3669,7345 L 3669,7195"/>
 <path fill="none" stroke="rgb(179,179,179)" stroke-linejoin="round" d="M 3669,7345 L 3669,7195"/>
 <path fill="none" stroke="rgb(179,179,179)" stroke-linejoin="round" d="M 5096,7345 L 5096,7195"/>
 <path fill="none" stroke="rgb(179,179,179)" stroke-linejoin="round" d="M 5096,7345 L 5096,7195"/>
 <path fill="none" stroke="rgb(179,179,179)" stroke-linejoin="round" d="M 6523,7345 L 6523,7195"/>
 <path fill="none" stroke="rgb(179,179,179)" stroke-linejoin="round" d="M 6523,7345 L 6523,7195"/>
 <path fill="none" stroke="rgb(179,179,179)" stroke-linejoin="round" d="M 7949,7345 L 7949,7195"/>
 <path fill="none" stroke="rgb(179,179,179)" stroke-linejoin="round" d="M 7949,7345 L 7949,7195"/>
 <path fill="none" stroke="rgb(179,179,179)" stroke-linejoin="round" d="M 9375,7345 L 9375,7195"/>
 <path fill="none" stroke="rgb(179,179,179)" stroke-linejoin="round" d="M 9375,7345 L 9375,7195"/>
 <path fill="none" stroke="rgb(179,179,179)" stroke-linejoin="round" d="M 10802,7345 L 10802,7195"/>
 <path fill="none" stroke="rgb(179,179,179)" stroke-linejoin="round" d="M 10802,7345 L 10802,7195"/>
 <path fill="none" stroke="rgb(179,179,179)" stroke-linejoin="round" d="M 2243,7195 L 10802,7195"/>
 <path fill="none" stroke="rgb(179,179,179)" stroke-linejoin="round" d="M 2093,7195 L 2243,7195"/>
 <path fill="none" stroke="rgb(179,179,179)" stroke-linejoin="round" d="M 2093,7195 L 2243,7195"/>
 <path fill="none" stroke="rgb(179,179,179)" stroke-linejoin="round" d="M 2093,6377 L 2243,6377"/>
 <path fill="none" stroke="rgb(179,179,179)" stroke-linejoin="round" d="M 2093,6377 L 2243,6377"/>
 <path fill="none" stroke="rgb(179,179,179)" stroke-linejoin="round" d="M 2093,5560 L 2243,5560"/>
 <path fill="none" stroke="rgb(179,179,179)" stroke-linejoin="round" d="M 2093,5560 L 2243,5560"/>
 <path fill="none" stroke="rgb(179,179,179)" stroke-linejoin="round" d="M 2093,4742 L 2243,4742"/>
 <path fill="none" stroke="rgb(179,179,179)" stroke-linejoin="round" d="M 2093,4742 L 2243,4742"/>
 <path fill="none" stroke="rgb(179,179,179)" stroke-linejoin="round" d="M 2093,3926 L 2243,3926"/>
 <path fill="none" stroke="rgb(179,179,179)" stroke-linejoin="round" d="M 2093,3926 L 2243,3926"/>
 <path fill="none" stroke="rgb(179,179,179)" stroke-linejoin="round" d="M 2093,3108 L 2243,3108"/>
 <path fill="none" stroke="rgb(179,179,179)" stroke-linejoin="round" d="M 2093,3108 L 2243,3108"/>
 <path fill="none" stroke="rgb(179,179,179)" stroke-linejoin="round" d="M 2093,2291 L 2243,2291"/>
 <path fill="none" stroke="rgb(179,179,179)" stroke-linejoin="round" d="M 2093,2291 L 2243,2291"/>
 <path fill="none" stroke="rgb(179,179,179)" stroke-linejoin="round" d="M 2093,1473 L 2243,1473"/>
 <path fill="none" stroke="rgb(179,179,179)" stroke-linejoin="round" d="M 2093,1473 L 2243,1473"/>
 <path fill="none" stroke="rgb(179,179,179)" stroke-linejoin="round" d="M 2243,7195 L 2243,1473"/>
 <path fill="none" stroke="rgb(87,157,28)" stroke-width="80" stroke-linejoin="round" d="M 2243,7037 L 2243,7050 2243,7047 2244,7049 2257,7048 2272,7048 2301,7045 2359,7040 2476,7026 2710,6986 3177,6907 4112,6747 5982,6203 9721,4877"/>
 <path fill="none" stroke="rgb(255,211,32)" stroke-width="80" stroke-linejoin="round" d="M 2243,7194 L 2257,7192 2272,7189 2301,7183 2359,7160 2476,7124 2710,7057 3177,6782 4112,6348 5982,5453 9721,2481"/>
 <path fill="none" stroke="rgb(255,66,14)" stroke-width="80" stroke-linejoin="round" d="M 2243,7195 L 2257,7188 2272,7181 2301,7167 2359,7135 2476,7068 2710,6955 3177,6689 4112,6125 5982,4943 9721,2407"/>
 <path fill="none" stroke="rgb(0,69,134)" stroke-width="80" stroke-linejoin="round" d="M 2243,7195 L 2257,7187 2272,7178 2301,7161 2359,7123 2476,7043 2710,6912 3177,6599 4112,5952 5982,4591 9721,1762"/>
 <text class="TextShape"><tspan class="TextParagraph" font-family="Liberation Sans" font-size="353px" font-weight="400"><tspan class="TextPosition" x="2150" y="7763"/><tspan class="TextPosition" x="2150" y="7763"><tspan fill="rgb(0,0,0)" stroke="none">0</tspan></tspan></tspan></text>
 <text class="TextShape"><tspan class="TextParagraph" font-family="Liberation Sans" font-size="353px" font-weight="400"><tspan class="TextPosition" x="3113" y="7763"/><tspan class="TextPosition" x="3113" y="7763"><tspan fill="rgb(0,0,0)" stroke="none">200000</tspan></tspan></tspan></text>
 <text class="TextShape"><tspan class="TextParagraph" font-family="Liberation Sans" font-size="353px" font-weight="400"><tspan class="TextPosition" x="4540" y="7763"/><tspan class="TextPosition" x="4540" y="7763"><tspan fill="rgb(0,0,0)" stroke="none">400000</tspan></tspan></tspan></text>
 <text class="TextShape"><tspan class="TextParagraph" font-family="Liberation Sans" font-size="353px" font-weight="400"><tspan class="TextPosition" x="5967" y="7763"/><tspan class="TextPosition" x="5967" y="7763"><tspan fill="rgb(0,0,0)" stroke="none">600000</tspan></tspan></tspan></text>
 <text class="TextShape"><tspan class="TextParagraph" font-family="Liberation Sans" font-size="353px" font-weight="400"><tspan class="TextPosition" x="7393" y="7763"/><tspan class="TextPosition" x="7393" y="7763"><tspan fill="rgb(0,0,0)" stroke="none">800000</tspan></tspan></tspan></text>
 <text class="TextShape"><tspan class="TextParagraph" font-family="Liberation Sans" font-size="353px" font-weight="400"><tspan class="TextPosition" x="8728" y="7763"/><tspan class="TextPosition" x="8728" y="7763"><tspan fill="rgb(0,0,0)" stroke="none">1000000</tspan></tspan></tspan></text>
 <text class="TextShape"><tspan class="TextParagraph" font-family="Liberation Sans" font-size="353px" font-weight="400"><tspan class="TextPosition" x="10155" y="7763"/><tspan class="TextPosition" x="10155" y="7763"><tspan fill="rgb(0,0,0)" stroke="none">1200000</tspan></tspan></tspan></text>
 <text class="TextShape"><tspan class="TextParagraph" font-family="Liberation Sans" font-size="353px" font-weight="400"><tspan class="TextPosition" x="1808" y="7316"/><tspan class="TextPosition" x="1808" y="7316"><tspan fill="rgb(0,0,0)" stroke="none">0</tspan></tspan></tspan></text>
 <text class="TextShape"><tspan class="TextParagraph" font-family="Liberation Sans" font-size="353px" font-weight="400"><tspan class="TextPosition" x="1332" y="6498"/><tspan class="TextPosition" x="1332" y="6498"><tspan fill="rgb(0,0,0)" stroke="none">0.01</tspan></tspan></tspan></text>
 <text class="TextShape"><tspan class="TextParagraph" font-family="Liberation Sans" font-size="353px" font-weight="400"><tspan class="TextPosition" x="1332" y="5681"/><tspan class="TextPosition" x="1332" y="5681"><tspan fill="rgb(0,0,0)" stroke="none">0.02</tspan></tspan></tspan></text>
 <text class="TextShape"><tspan class="TextParagraph" font-family="Liberation Sans" font-size="353px" font-weight="400"><tspan class="TextPosition" x="1332" y="4863"/><tspan class="TextPosition" x="1332" y="4863"><tspan fill="rgb(0,0,0)" stroke="none">0.03</tspan></tspan></tspan></text>
 <text class="TextShape"><tspan class="TextParagraph" font-family="Liberation Sans" font-size="353px" font-weight="400"><tspan class="TextPosition" x="1332" y="4046"/><tspan class="TextPosition" x="1332" y="4046"><tspan fill="rgb(0,0,0)" stroke="none">0.04</tspan></tspan></tspan></text>
 <text class="TextShape"><tspan class="TextParagraph" font-family="Liberation Sans" font-size="353px" font-weight="400"><tspan class="TextPosition" x="1332" y="3228"/><tspan class="TextPosition" x="1332" y="3228"><tspan fill="rgb(0,0,0)" stroke="none">0.05</tspan></tspan></tspan></text>
 <text class="TextShape"><tspan class="TextParagraph" font-family="Liberation Sans" font-size="353px" font-weight="400"><tspan class="TextPosition" x="1332" y="2411"/><tspan class="TextPosition" x="1332" y="2411"><tspan fill="rgb(0,0,0)" stroke="none">0.06</tspan></tspan></tspan></text>
 <text class="TextShape"><tspan class="TextParagraph" font-family="Liberation Sans" font-size="353px" font-weight="400"><tspan class="TextPosition" x="1332" y="1593"/><tspan class="TextPosition" x="1332" y="1593"><tspan fill="rgb(0,0,0)" stroke="none">0.07</tspan></tspan></tspan></text>
 <text class="TextShape"><tspan class="TextParagraph" font-family="Liberation Sans" font-size="459px" font-weight="400"><tspan class="TextPosition" x="6624" y="851"/><tspan class="TextPosition" x="6624" y="851"><tspan fill="rgb(0,0,0)" stroke="none">Reversed data</tspan></tspan></tspan></text>
 <path fill="none" stroke="rgb(0,69,134)" stroke-width="80" stroke-linejoin="round" d="M 11888,3754 L 12688,3754"/>
 <path fill="none" stroke="rgb(255,66,14)" stroke-width="80" stroke-linejoin="round" d="M 11888,4252 L 12688,4252"/>
 <path fill="none" stroke="rgb(255,211,32)" stroke-width="80" stroke-linejoin="round" d="M 11888,4749 L 12688,4749"/>
 <path fill="none" stroke="rgb(87,157,28)" stroke-width="80" stroke-linejoin="round" d="M 11888,5247 L 12688,5247"/>
 <text class="TextShape"><tspan class="TextParagraph" font-family="Liberation Sans" font-size="353px" font-weight="400"><tspan class="TextPosition" x="12788" y="3874"/><tspan class="TextPosition" x="12788" y="3874"><tspan fill="rgb(0,0,0)" stroke="none"> </tspan></tspan><tspan class="TextPosition" x="12894" y="3874"><tspan fill="rgb(0,0,0)" stroke="none">qsort</tspan></tspan></tspan></text>
 <text class="TextShape"><tspan class="TextParagraph" font-family="Liberation Sans" font-size="353px" font-weight="400"><tspan class="TextPosition" x="12788" y="4372"/><tspan class="TextPosition" x="12788" y="4372"><tspan fill="rgb(0,0,0)" stroke="none"> </tspan></tspan><tspan class="TextPosition" x="12894" y="4372"><tspan fill="rgb(0,0,0)" stroke="none">merge_sort</tspan></tspan></tspan></text>
 <text class="TextShape"><tspan class="TextParagraph" font-family="Liberation Sans" font-size="353px" font-weight="400"><tspan class="TextPosition" x="12788" y="4869"/><tspan class="TextPosition" x="12788" y="4869"><tspan fill="rgb(0,0,0)" stroke="none"> </tspan></tspan><tspan class="TextPosition" x="12894" y="4869"><tspan fill="rgb(0,0,0)" stroke="none">radix_sort</tspan></tspan></tspan></text>
 <text class="TextShape"><tspan class="TextParagraph" font-family="Liberation Sans" font-size="353px" font-weight="400"><tspan class="TextPosition" x="12788" y="5367"/><tspan class="TextPosition" x="12788" y="5367"><tspan fill="rgb(0,0,0)" stroke="none"> </tspan></tspan><tspan class="TextPosition" x="12894" y="5367"><tspan fill="rgb(0,0,0)" stroke="none">parallel_radix_sort</tspan></tspan></tspan></text>
 <text class="TextShape"><tspan class="TextParagraph" font-family="Liberation Sans" font-size="318px" font-weight="400"><tspan class="TextPosition" x="4923" y="8410"/><tspan class="TextPosition" x="4923" y="8410"><tspan fill="rgb(0,0,0)" stroke="none">number of elements</tspan></tspan></tspan></text>
 <text class="TextShape" transform="translate(837,5630) rotate(-90) translate(-837,-5630)"><tspan class="TextParagraph" font-family="Liberation Sans" font-size="318px" font-weight="400"><tspan class="TextPosition" x="837" y="5630"/><tspan class="TextPosition" x="837" y="5630"><tspan fill="rgb(0,0,0)" stroke="none">time [seconds]</tspan></tspan></tspan></text>
</svg>